<svg id="Layer_1" data-name="Layer 1" xmlns="http://www.w3.org/2000/svg" viewBox="0 0 197.28 50.33"><defs><style>.cls-1{fill:#052d3e;}.cls-2{fill:#1de49f;}.cls-3{font-size:6px;fill:#d5e003;font-family:EffraCorp-Medium, Effra Corp;letter-spacing:0.06em;}.cls-4{letter-spacing:0.02em;}.cls-5{letter-spacing:0.08em;}.cls-6{letter-spacing:0.06em;}.cls-7{letter-spacing:0.04em;}</style></defs><title>logo</title><rect class="cls-1" y="39.5" width="84.37" height="10.83"/><path class="cls-2" d="M2,57.59V23.81H18.62q7.08,0,9.91,3.09t2.83,10.84q0,12.65-2.28,16.25t-10.27,3.6Zm6.41-5.4h9.13q4.6,0,6-2.12t1.35-9.34q0-7.47-1.21-9.5t-5.69-2H8.42Z" transform="translate(-1.72 -20.77)"/><path class="cls-2" d="M55.15,23.51q9.21,0,11.86,3.06t2.65,13.67q0,11.61-2.66,14.63t-12.88,3q-9.21,0-11.91-3t-2.7-13.13q0-12.08,2.65-15.17T55.15,23.51ZM54.65,29q-6.46,0-7.55,1.66T46,42.15q0,7.28,1.27,8.76T54.8,52.4q6,0,7.15-1.67t1.19-10.14q0-8.49-1.13-10T54.65,29Z" transform="translate(-1.72 -20.77)"/><path class="cls-2" d="M85.46,23.81V37.57h3L99.72,23.81h8L94.05,40.22l15.07,17.38h-8.22L88.53,43H85.46V57.59H79.05V23.81Z" transform="translate(-1.72 -20.77)"/><path class="cls-2" d="M123.2,23.81V57.59h-6.41V23.81Z" transform="translate(-1.72 -20.77)"/><path class="cls-2" d="M190.19,51.11H175.61l-2.1,6.48h-6.78L178,23.81h9.63L199,57.59h-6.66Zm-1.48-4.73-5.84-17.6-5.74,17.6Z" transform="translate(-1.72 -20.77)"/><text class="cls-3" transform="translate(4.22 46.69)">S<tspan class="cls-4" x="3.91" y="0">A</tspan><tspan class="cls-5" x="7.9" y="0">VING LIVE</tspan><tspan class="cls-6" x="39.2" y="0">S</tspan><tspan class="cls-5" x="43.12" y="0">..</tspan><tspan class="cls-7" x="47.37" y="0">.</tspan><tspan class="cls-5" x="49.25" y="0">ON TIME</tspan></text><path class="cls-1" d="M147.13,28.34l.46.13a1,1,0,0,1,.82.58c.47.57.41.82-.29,1.09a2.3,2.3,0,0,1-1.77.09,1.38,1.38,0,0,0-1.67.43,2,2,0,0,0,.26,2.85,6.23,6.23,0,0,0,3.4.94,11.88,11.88,0,0,1,4,.6,3.52,3.52,0,0,1,2.51,3.49A2.84,2.84,0,0,1,153.2,41a.26.26,0,0,1-.35,0A5.11,5.11,0,0,0,151,40a7.51,7.51,0,0,0,1.36-.56,1.26,1.26,0,0,0,.14-2.18,4.59,4.59,0,0,0-2.77-.84,20.81,20.81,0,0,1-3.95-.4,5.48,5.48,0,0,1-2.65-1.5,3.5,3.5,0,0,1,.55-5.25L144,29a1.63,1.63,0,0,1,.83-.47,8.59,8.59,0,0,1,1.81-.35A.62.62,0,0,1,147.13,28.34Z" transform="translate(-1.72 -20.77)"/><path class="cls-1" d="M142.68,25.2a12.17,12.17,0,0,1-2.27.23,3.85,3.85,0,0,1-2.13-.61c-.41-.29-.4-.44,0-.7a22.57,22.57,0,0,1,4.87-2.49,4.22,4.22,0,0,1,1.49-.25A1.29,1.29,0,0,1,146,22.74a14.38,14.38,0,0,0,0,1.91,1.83,1.83,0,0,0,1.73,1.7,1.12,1.12,0,0,1,1.12.86c.07.16.13.33.2.52-.83,0-1.62.09-2.41,0-.17,0-.36,0-.49-.13,0,0,0,0,0,0l0,0a.32.32,0,0,1,.17-.13c-.13,0-.26,0-.38,0a1.25,1.25,0,0,1-1.11-.31,5.94,5.94,0,0,0-.87-.51l.71-.25c0-.24-.18-.11-.29-.1a1.26,1.26,0,0,0-.29,0,1.85,1.85,0,0,1-2.1-.72l.82-.29C142.9,25.08,142.77,25.18,142.68,25.2Z" transform="translate(-1.72 -20.77)"/><path class="cls-1" d="M152.06,27.55c.24.12.06.14,0,.16a8,8,0,0,1-1.55.07c-.38,0-.77,0-1.16-.05,0-.24.16-.42.18-.64s0-.25.17-.31a.68.68,0,0,1,.67-.38,1.94,1.94,0,0,0,2-2c0-.6,0-1.21,0-1.81a1.22,1.22,0,0,1,1.35-1.23,5.28,5.28,0,0,1,2.09.46,27.19,27.19,0,0,1,4.36,2.32c.35.22.26.39,0,.59a3.4,3.4,0,0,1-1.91.67,9.54,9.54,0,0,1-2.68-.24.54.54,0,0,0-.36,0c.31.23.71.24,1,.43-.73.81-.92.88-2,.73l-.54,0c-.08,0-.21,0-.11.12l.76.28c-.8.16-1.19,1-2,.79C152.08,27.4,152.08,27.4,152.06,27.55Z" transform="translate(-1.72 -20.77)"/><path class="cls-1" d="M147,36.65a6.83,6.83,0,0,0-1,.57,1.26,1.26,0,0,0,.14,2.24,6.63,6.63,0,0,0,3.42.7,5,5,0,0,1,2.45.59,3.15,3.15,0,0,1,1.53,3.42,2.12,2.12,0,0,1-.31.71c-.51.74-.75.8-1.53.38l-.86-.45c.06-.17.23-.12.34-.17.44-.2.92-.39.94-1a1.59,1.59,0,0,0-.76-1.5,3.27,3.27,0,0,0-1.79-.41,10.36,10.36,0,0,1-3.16-.35,4.69,4.69,0,0,1-2-1.1,3.08,3.08,0,0,1,.06-4.18c.16-.18.3-.12.47,0A7.31,7.31,0,0,0,147,36.65Z" transform="translate(-1.72 -20.77)"/><path class="cls-1" d="M140.3,25.75a29.24,29.24,0,0,1-5.73,1.92,12.5,12.5,0,0,1-4.47.39,3.91,3.91,0,0,1-1.74-.61,1.69,1.69,0,0,1-.67-.8c1-.15,2-.29,2.95-.46a45.55,45.55,0,0,0,6.57-1.58c.27-.09.37-.07.49.21a1.33,1.33,0,0,0,.94.66A6.85,6.85,0,0,0,140.3,25.75Z" transform="translate(-1.72 -20.77)"/><path class="cls-1" d="M158,25.74a6.29,6.29,0,0,0,1.7-.25,1.33,1.33,0,0,0,1-.78c.08-.23.19-.15.33-.11a50.8,50.8,0,0,0,6.33,1.54,33.3,33.3,0,0,0,3.33.47,3.81,3.81,0,0,1-2.47,1.44,10.29,10.29,0,0,1-3.75-.29A33.57,33.57,0,0,1,158,25.74Z" transform="translate(-1.72 -20.77)"/><path class="cls-1" d="M150.67,28.55c.14-.05.31-.06.41-.2s.13-.15.24-.14a6.48,6.48,0,0,1,3.73,1.12,2,2,0,0,1,.8,1.13,4.47,4.47,0,0,1,.36,1.51c.07,1.5-.54,2.54-2.11,3.48a.34.34,0,0,1-.4,0,13.93,13.93,0,0,0-2.34-1.06c.18-.18.41-.14.6-.2a5.58,5.58,0,0,0,1.31-.54,2,2,0,0,0,.29-3.16,1.28,1.28,0,0,0-1.45-.27,2.45,2.45,0,0,1-2-.19c-.3-.15-.5-.37-.33-.74a1.89,1.89,0,0,1,.28-.46l.11-.07c.15,0,.22-.19.35-.26A.18.18,0,0,1,150.67,28.55Z" transform="translate(-1.72 -20.77)"/><path class="cls-1" d="M148.7,46.25a6.6,6.6,0,0,1-2.25-.41,2.71,2.71,0,0,1-1-4.26.26.26,0,0,1,.37-.08,6.8,6.8,0,0,0,1.53.49,2,2,0,0,0-.95,1.06,1.06,1.06,0,0,0,.66,1.5,3.57,3.57,0,0,0,1.62.3.92.92,0,0,1,1,0,5.12,5.12,0,0,1,1.53.49,2.58,2.58,0,0,1,.43,4.26.53.53,0,0,1-.69.09,6,6,0,0,0-1.06-.38c.82-.43,1.73-.74,1.45-1.89a1.65,1.65,0,0,0-1.76-1.2A.78.78,0,0,1,148.7,46.25Z" transform="translate(-1.72 -20.77)"/><path class="cls-1" d="M131.49,28.5a33.13,33.13,0,0,0,6.6-1.61,19.07,19.07,0,0,0,2.57-1.06A1.07,1.07,0,0,1,142,26a2.19,2.19,0,0,0,.75.54C140.31,29,133.1,30.28,131.49,28.5Z" transform="translate(-1.72 -20.77)"/><path class="cls-1" d="M166.92,28.5a7.64,7.64,0,0,1-4.44.8,15.78,15.78,0,0,1-6.62-2.53,2.48,2.48,0,0,1-.27-.24,2,2,0,0,0,.77-.55,1.09,1.09,0,0,1,1.31-.17A32.39,32.39,0,0,0,166.92,28.5Z" transform="translate(-1.72 -20.77)"/><path class="cls-1" d="M153.32,27.57l.48-.33a1.72,1.72,0,0,1,2.1-.09,17.63,17.63,0,0,0,6.37,2.41,3.71,3.71,0,0,1-2.61.7,7.34,7.34,0,0,1-2.52-.51,1.06,1.06,0,0,1-.47,0,3.9,3.9,0,0,1-.42-.2,2.45,2.45,0,0,0-.68-.36,1.19,1.19,0,0,1-.23-.12c-.16-.11-.34-.18-.49-.3s-.26-.14-.39-.22a5.2,5.2,0,0,0-.7-.39C153.62,27.93,153.21,28,153.32,27.57Z" transform="translate(-1.72 -20.77)"/><path class="cls-1" d="M140.73,29.93a7.08,7.08,0,0,1-3.52.21,2.27,2.27,0,0,1-1.13-.57,17.49,17.49,0,0,0,5-1.69A15.76,15.76,0,0,0,142.7,27a1.21,1.21,0,0,1,1.24-.08,5.15,5.15,0,0,1,1,.61c.11.08.09.15,0,.24a7.05,7.05,0,0,1-1.5,1c-.16.09-.33.13-.5.21l-.4.2a2,2,0,0,1-.4.21,3.07,3.07,0,0,0-.4.18,2.43,2.43,0,0,0-.33.19C141.22,29.9,141,29.87,140.73,29.93Z" transform="translate(-1.72 -20.77)"/><path class="cls-1" d="M149.6,53a7.82,7.82,0,0,0,.73-.45,1.16,1.16,0,0,0,.39-1.28c-.14-.54-.58-.71-1.07-.81s-1-.07-1.5-.2a3.81,3.81,0,0,1-1.47-.75,2.46,2.46,0,0,1-.42-3.24.27.27,0,0,1,.37-.12l1,.38s0,.07,0,.09a1.36,1.36,0,0,0,.34,2.41,3.14,3.14,0,0,0,1.22.35,3.79,3.79,0,0,1,1.48.42,1.81,1.81,0,0,1,1,1.73,1.89,1.89,0,0,1-1.08,1.79C150.2,53.51,149.94,53.13,149.6,53Z" transform="translate(-1.72 -20.77)"/><path class="cls-1" d="M148.6,23.86a1.61,1.61,0,0,1-.62-2.53,1.55,1.55,0,0,1,1.59-.51A1.48,1.48,0,0,1,150.73,22a1.53,1.53,0,0,1-.58,1.61,3.92,3.92,0,0,1-.37.23.65.65,0,0,1-.4.19,2.66,2.66,0,0,1-.38,0A.46.46,0,0,1,148.6,23.86Z" transform="translate(-1.72 -20.77)"/><path class="cls-1" d="M149.48,53.95c-.43-.14-.87-.26-1.3-.43a2.11,2.11,0,0,1-1.26-2.76c.16-.38.35-.62.8-.37a4.8,4.8,0,0,0,.54.22,1.22,1.22,0,0,0,.1,2.16,7.68,7.68,0,0,0,1,.38,2,2,0,0,1,1.32,2.74,1.09,1.09,0,0,1-.85.79c-.15.06-.29.1-.42,0a.22.22,0,0,1,.09-.16,1.39,1.39,0,0,0,.12-2.36A.77.77,0,0,1,149.48,53.95Z" transform="translate(-1.72 -20.77)"/><path class="cls-1" d="M149.16,29.24a4.06,4.06,0,0,1,.64,2.59,16.23,16.23,0,0,0,0,2c0,.27-.06.36-.35.36-.86,0-.85,0-.86-.83s0-1.66,0-2.5A5.56,5.56,0,0,1,149.16,29.24Z" transform="translate(-1.72 -20.77)"/><path class="cls-1" d="M149.7,38.28a9.11,9.11,0,0,0,0,1.17c.06.45-.2.44-.49.4s-.64.2-.62-.38c0-.8,0-1.6,0-2.4,0-.27,0-.4.36-.39.78,0,.78,0,.78.76q0,.42,0,.83Z" transform="translate(-1.72 -20.77)"/><path class="cls-1" d="M149.38,56.59c.11.13.27.07.4.09-.41,0-.49.27-.49.64a3,3,0,0,1-.18,1.4c0-.63-.1-1.13-.12-1.63,0-.23,0-.34-.3-.39a1.26,1.26,0,0,1-1-1.09,1.86,1.86,0,0,1,.37-1.79c.25-.28.44.11.69.12-1,1.1-.88,2.19.12,2.57,0-.65,0-1.31,0-2,0-.35.06-.55.45-.52,0,0,.1,0,.11.09A4.92,4.92,0,0,1,149.38,56.59Z" transform="translate(-1.72 -20.77)"/><path class="cls-1" d="M143.85,28.93a3.41,3.41,0,0,0-1.54,1.36c-.07.12-.12.21-.29.19a6,6,0,0,1-1.47-.27l.37-.19c.12-.22.39-.17.55-.33l.23-.12a3.93,3.93,0,0,0,.39-.2,1.18,1.18,0,0,0,.39-.2l.4-.2a2.67,2.67,0,0,0,.53-.27,17.56,17.56,0,0,1,1.66-.83c.09,0,.19-.11.27-.09a18.27,18.27,0,0,0,2.29.24c-.08.32-.33.2-.51.24a6,6,0,0,0-2.89.59A1.87,1.87,0,0,1,143.85,28.93Z" transform="translate(-1.72 -20.77)"/><path class="cls-1" d="M155.44,28.95l.14.1a2.44,2.44,0,0,0,.71.39.58.58,0,0,1,.37.17c.1.12.31.07.39.23l.71.36a5.09,5.09,0,0,1-1.56.29c-.13,0-.13-.13-.21-.16a.48.48,0,0,1-.26-.21,4.28,4.28,0,0,0-3-1.74,5.84,5.84,0,0,0-1.5-.11l-.15.1c-.12-.1-.33-.08-.39-.34a21.84,21.84,0,0,0,2.41-.24,2.57,2.57,0,0,1,.71.34c.2.14.43.22.62.36s.31.15.46.24A1.14,1.14,0,0,0,155.44,28.95Z" transform="translate(-1.72 -20.77)"/><path class="cls-1" d="M148.71,44.77c0-.81,0-1.63,0-2.44,0-.4.24-.32.44-.29s.57-.22.55.28,0,.78,0,1.17a2.77,2.77,0,0,0,0,.91c0,.32-.07.49-.42.43C149,44.8,148.87,44.88,148.71,44.77Z" transform="translate(-1.72 -20.77)"/><path class="cls-1" d="M149.58,46.36c0,.8,0,1.6,0,2.4,0,.32-.13.38-.41.38s-.4,0-.4-.36c0-.8,0-1.59-.05-2.39A1.29,1.29,0,0,1,149.58,46.36Z" transform="translate(-1.72 -20.77)"/><path class="cls-1" d="M149.49,25a1,1,0,0,1,.26,1.27l-.19.38c0,.13,0,.26-.18.32s-.21.37-.39,0a2.52,2.52,0,0,1-.46-1.54c0-.23.08-.41.34-.46A.48.48,0,0,1,149.49,25Z" transform="translate(-1.72 -20.77)"/><path class="cls-1" d="M149.38,56.59c0-.69,0-1.39,0-2.08,0-.16.05-.33-.06-.47l.14-.09a1.4,1.4,0,0,1,.81,1.57A1.1,1.1,0,0,1,149.38,56.59Z" transform="translate(-1.72 -20.77)"/><path class="cls-1" d="M149.47,51.78c0,.26,0,.52,0,.78s0,.36-.3.37-.34-.14-.34-.38c0-.54,0-1.08,0-1.61,0-.27.09-.33.34-.32s.41,0,.38.33,0,.55,0,.83Z" transform="translate(-1.72 -20.77)"/><path class="cls-1" d="M148.88,24.84a1,1,0,0,1-.51-.27c-.17-.16-.39-.34-.3-.57s.35,0,.53-.06a1.74,1.74,0,0,0,.38,0,.61.61,0,0,0,.43,0c.13,0,.25-.06.38-.05s.43-.16.52.09-.12.39-.28.54a1,1,0,0,1-.52.27A.64.64,0,0,1,148.88,24.84Z" transform="translate(-1.72 -20.77)"/><path class="cls-1" d="M150.16,28.85h-.07a1.64,1.64,0,0,1-.39.4c-.08,0-.15.17-.23,0a2.13,2.13,0,0,1-.21-1.14.22.22,0,0,1,.1-.15,1.14,1.14,0,0,1,1.33.58h-.15C150.39,28.64,150.29,28.76,150.16,28.85Z" transform="translate(-1.72 -20.77)"/><path class="cls-1" d="M151.23,28.26a4.7,4.7,0,0,1,4,1.15,2.84,2.84,0,0,1,.77.91l-.12.13c-1-1.56-2.5-2-4.17-2.1C151.53,28.35,151.35,28.42,151.23,28.26Z" transform="translate(-1.72 -20.77)"/><path class="cls-1" d="M147.72,28.34c.35-.3,1.12-.52,1.31-.38s.07.73-.14,1.23c-.18,0-.21-.24-.37-.26A1.78,1.78,0,0,1,147.72,28.34Z" transform="translate(-1.72 -20.77)"/><path class="cls-1" d="M143.85,28.93a4.55,4.55,0,0,1,3.27-.68.59.59,0,0,1,0,.08A7.72,7.72,0,0,0,144,29Z" transform="translate(-1.72 -20.77)"/><path class="cls-1" d="M145.08,27.87a7,7,0,0,1-1.68.89s0,0,0-.07,0,0,0,0a15,15,0,0,1,1.58-.88Z" transform="translate(-1.72 -20.77)"/><path class="cls-1" d="M148.71,44.77c.89,0,.89,0,.91-.85,0-.14,0-.3.06-.43a8.26,8.26,0,0,1,0,1.4l-1,0A.21.21,0,0,1,148.71,44.77Z" transform="translate(-1.72 -20.77)"/><path class="cls-1" d="M147.72,28.34a2.48,2.48,0,0,1,.8.6l-.12.11-.82-.58Z" transform="translate(-1.72 -20.77)"/><path class="cls-1" d="M153.8,28.2a2.2,2.2,0,0,1-.69-.43l.22-.21c0,.31.38.26.5.46A.14.14,0,0,1,153.8,28.2Z" transform="translate(-1.72 -20.77)"/><path class="cls-1" d="M141.53,29.74a1.55,1.55,0,0,1-.6.28l-.2-.09.69-.3A.14.14,0,0,1,141.53,29.74Z" transform="translate(-1.72 -20.77)"/><path class="cls-1" d="M148.88,24.84h.62V25h-.61Z" transform="translate(-1.72 -20.77)"/><path class="cls-1" d="M149.58,46.36l-.86,0,0-.12a3.15,3.15,0,0,1,.89,0Z" transform="translate(-1.72 -20.77)"/><path class="cls-1" d="M149.69,29.25a.62.62,0,0,1,.39-.4c.06.27-.16.34-.33.45Z" transform="translate(-1.72 -20.77)"/><path class="cls-1" d="M157,29.84c-.14,0-.33,0-.39-.23a.93.93,0,0,1,.5.14Z" transform="translate(-1.72 -20.77)"/><path class="cls-1" d="M144.46,26.28a.56.56,0,0,1,.51-.05.2.2,0,0,1-.22.16C144.7,26.23,144.55,26.34,144.46,26.28Z" transform="translate(-1.72 -20.77)"/><path class="cls-1" d="M152.06,27.55l-.26-.09a.56.56,0,0,1,.55,0Z" transform="translate(-1.72 -20.77)"/><path class="cls-1" d="M146,27.45c.15-.11.32-.07.53-.09a.37.37,0,0,1-.32.2Z" transform="translate(-1.72 -20.77)"/><path class="cls-1" d="M142.68,25.2a.59.59,0,0,1,.51-.07.38.38,0,0,1-.3.16Z" transform="translate(-1.72 -20.77)"/><path class="cls-1" d="M153.62,26.38a.2.2,0,0,1-.25-.16c.13,0,.25-.08.36,0Z" transform="translate(-1.72 -20.77)"/><path class="cls-1" d="M149.39,27a.52.52,0,0,1,.18-.32l.09.12a.52.52,0,0,1-.17.31Z" transform="translate(-1.72 -20.77)"/><path class="cls-1" d="M149.78,23.94c-.1.14-.26.09-.39.1a.06.06,0,0,1,0-.06s0,0,0,0,.24-.16.39-.09A.63.63,0,0,1,149.78,23.94Z" transform="translate(-1.72 -20.77)"/><path class="cls-1" d="M149,24c-.14,0-.29,0-.4-.1a.79.79,0,0,1,0-.08l.39.09a.06.06,0,0,1,0,.06S149,24,149,24Z" transform="translate(-1.72 -20.77)"/><path class="cls-1" d="M147,29.06a.14.14,0,0,1-.16-.14c0-.08.05-.17.15-.15a.21.21,0,0,1,.13.12C147.2,29,147.14,29,147,29.06Z" transform="translate(-1.72 -20.77)"/><path class="cls-1" d="M151.39,29.06c-.08,0-.15-.06-.12-.16a.21.21,0,0,1,.13-.12.14.14,0,0,1,.15.15C151.56,29,151.49,29.06,151.39,29.06Z" transform="translate(-1.72 -20.77)"/><path class="cls-1" d="M150.16,28.85c0-.2.19-.27.36-.3C150.5,28.77,150.36,28.85,150.16,28.85Z" transform="translate(-1.72 -20.77)"/><path class="cls-1" d="M153.8,28.2l0-.17a2.48,2.48,0,0,1,.7.41c0,.07-.07.08-.12.1Z" transform="translate(-1.72 -20.77)"/><path class="cls-1" d="M156.29,29.44a.77.77,0,0,1-.71-.39A1.08,1.08,0,0,1,156.29,29.44Z" transform="translate(-1.72 -20.77)"/><path class="cls-1" d="M154.41,28.54l.12-.1a.75.75,0,0,1,.36.23s0,0,0,.07,0,0,0,0Z" transform="translate(-1.72 -20.77)"/><path class="cls-1" d="M154.89,28.77v-.11l.55.28C155.19,29.1,155.06,28.87,154.89,28.77Z" transform="translate(-1.72 -20.77)"/><path class="cls-1" d="M143.39,28.66v.11a.79.79,0,0,1-.49.29.11.11,0,0,1,0-.18Z" transform="translate(-1.72 -20.77)"/><path class="cls-1" d="M142.9,28.88v.18a.68.68,0,0,1-.39.19.11.11,0,0,1,0-.17Z" transform="translate(-1.72 -20.77)"/><path class="cls-1" d="M142.11,29.45a.61.61,0,0,1-.4.19.11.11,0,0,1,0-.17l.39-.2A.11.11,0,0,1,142.11,29.45Z" transform="translate(-1.72 -20.77)"/><path class="cls-1" d="M142.11,29.45v-.18c.18,0,.22-.21.39-.19v.17A.68.68,0,0,1,142.11,29.45Z" transform="translate(-1.72 -20.77)"/><path class="cls-1" d="M141.72,29.47v.17l-.19.1-.12-.12Z" transform="translate(-1.72 -20.77)"/><path class="cls-1" d="M149,24a.29.29,0,0,1,0-.09h.4a.8.8,0,0,1,0,.09A.32.32,0,0,1,149,24Z" transform="translate(-1.72 -20.77)"/></svg>
